<svg width="150" height="28" viewBox="0 0 150 28" fill="none" xmlns="http://www.w3.org/2000/svg">
<path d="M20.2 18.38C20.2 23.02 16.76 26.5 11.12 26.5H0.52V0.98H10.16C14.72 0.98 17.96 3.98 17.96 7.82C17.96 8.98 17.32 10.9 16.08 11.78C18.24 12.58 20.2 15.18 20.2 18.38ZM10.56 8.82C10.56 7.54 9.68 7.02 8.88 7.02H7.96V10.62H8.88C9.68 10.62 10.56 10.1 10.56 8.82ZM12.16 18.62C12.16 17.18 10.96 16.46 9.88 16.46H8V20.7H9.88C10.96 20.7 12.16 20.06 12.16 18.62ZM49.4816 13.74C49.4816 21.9 42.8416 27.22 35.5216 27.22C28.2016 27.22 21.5616 21.9 21.5616 13.74C21.5616 5.58 28.2016 0.259999 35.5216 0.259999C42.8416 0.259999 49.4816 5.58 49.4816 13.74ZM40.8016 13.82C40.8016 10.62 38.4816 7.9 35.5216 7.9C32.5616 7.9 30.2416 10.62 30.2416 13.82C30.2416 17.02 32.5616 19.66 35.5216 19.66C38.4816 19.66 40.8016 17.02 40.8016 13.82ZM72.1653 9.3C72.1653 14.06 68.5253 17.62 63.3653 17.62H60.0853V26.5H51.9653V0.98H63.3653C68.5253 0.98 72.1653 4.54 72.1653 9.3ZM64.2053 9.5C64.2053 8.26 63.1653 7.66 62.2453 7.66H60.0853V11.34H62.2453C63.1653 11.34 64.2053 10.74 64.2053 9.5ZM94.2347 1.9L92.5947 8.98C91.4347 8.34 89.9947 7.94 88.3147 7.94C84.1547 7.94 82.0347 10.9 82.0347 13.86C82.0347 16.82 84.1947 19.86 88.8747 19.86C90.1547 19.86 91.9547 19.58 93.0347 19.06L92.3147 26.3C91.1947 26.74 89.3147 27.02 87.3547 27.02C80.5147 27.02 73.5147 22.46 73.5147 13.74C73.5147 5.1 80.5147 0.459999 87.3547 0.459999C90.1947 0.459999 92.7547 1.02 94.2347 1.9ZM122.294 13.74C122.294 21.9 115.654 27.22 108.334 27.22C101.014 27.22 94.3741 21.9 94.3741 13.74C94.3741 5.58 101.014 0.259999 108.334 0.259999C115.654 0.259999 122.294 5.58 122.294 13.74ZM113.614 13.82C113.614 10.62 111.294 7.9 108.334 7.9C105.374 7.9 103.054 10.62 103.054 13.82C103.054 17.02 105.374 19.66 108.334 19.66C111.294 19.66 113.614 17.02 113.614 13.82ZM149.818 26.5H144.698L136.578 17.66C135.178 16.14 133.778 14.5 132.738 13.18L132.658 13.22C132.738 14.5 132.818 16.26 132.818 17.58V26.5H124.778V0.98H132.138L138.738 8.1C139.738 9.18 141.058 10.7 141.858 11.78L141.938 11.74C141.858 10.62 141.738 9.5 141.738 8.18V0.98H149.818V26.5Z" fill="black"/>
</svg>
