<svg xmlns="http://www.w3.org/2000/svg" width="111" height="26" viewBox="0 0 111 26" fill="none">
<path d="M24.9172 17H20.6692V6.776C20.6692 5.336 20.0932 3.932 17.7172 3.932C15.4852 3.932 14.6932 5.3 14.6932 6.812V17H10.3732V6.776C10.3732 5.336 9.79722 3.932 7.49322 3.932C5.22522 3.932 4.39722 5.3 4.39722 6.812V17H0.14922V0.692H4.07322V2.852H4.10922C4.79322 1.268 6.30522 0.259999 8.93322 0.259999C11.1292 0.259999 12.9652 1.16 13.7572 2.78C14.5492 1.34 16.4932 0.259999 18.9412 0.259999C22.6492 0.259999 24.9172 2.384 24.9172 5.912V17ZM42.6424 0.692L36.7384 15.812C34.4344 21.608 31.7344 24.272 28.7464 25.496L26.0824 22.832C28.7464 21.716 30.8704 19.772 32.4904 15.704L26.5144 0.692H30.7624L33.4264 7.568C33.7864 8.504 34.2904 9.8 34.6144 11.024H34.6864C35.0824 9.872 35.5864 8.504 35.9464 7.568L38.6464 0.692H42.6424ZM61.3073 8.648C61.3073 13.832 57.7073 17.432 53.2433 17.432C51.2273 17.432 49.7153 16.604 48.8513 15.704V25.316H44.6753V0.692H48.5633V2.6L48.6353 2.636C49.6793 1.124 51.3713 0.259999 53.4953 0.259999C57.8513 0.259999 61.3073 3.464 61.3073 8.648ZM57.0593 8.72C57.0593 5.66 54.8633 3.896 52.5953 3.896C51.0833 3.896 49.6793 4.652 48.8873 5.912V11.816C49.6793 13.076 51.0833 13.832 52.5953 13.832C54.8633 13.832 57.0593 11.744 57.0593 8.72ZM68.5413 17.468C65.2293 17.468 63.1413 15.128 63.1413 12.32C63.1413 9.188 65.6253 7.352 68.5773 7.064L72.1773 6.74V5.876C72.1773 4.616 71.3133 3.644 69.2613 3.644C67.6773 3.644 65.9133 4.148 64.7613 4.904L63.9693 1.664C65.3733 0.727999 67.5693 0.223999 69.6933 0.223999C73.5453 0.223999 76.2093 2.24 76.2093 6.128V10.772C76.2093 12.392 77.0013 13.94 78.1533 14.66V14.984L75.4173 17.288C74.5533 16.928 73.7613 16.172 73.2933 15.092C72.3933 16.568 70.7013 17.468 68.5413 17.468ZM67.0293 12.284C67.0293 13.328 67.8573 14.228 69.1173 14.228C70.7373 14.228 72.1773 12.968 72.1773 11.096V9.764L69.5493 10.016C67.7853 10.16 67.0293 11.204 67.0293 12.284ZM94.1101 19.628C94.1101 22.904 91.1221 25.316 86.5861 25.316C81.9781 25.316 78.9541 22.832 78.9541 19.376C78.9541 16.712 80.7901 15.164 82.4821 14.768L80.5381 12.824C80.5741 11.708 81.5461 10.7 82.5541 10.34C81.1861 9.548 80.0341 8 80.0341 5.912C80.0341 2.564 82.5181 0.223999 86.4781 0.223999C87.9541 0.223999 89.0341 0.547999 90.0421 0.979999C91.4101 1.016 92.6341 0.583999 93.4621 0.188L94.0741 3.536C93.6421 3.788 92.9221 3.968 92.1661 4.004C92.4541 4.364 92.7421 5.228 92.7421 6.056C92.7421 8.9 90.5101 11.348 86.9821 11.456C85.9741 11.456 85.2901 11.672 85.2901 12.284C85.2901 12.572 85.5061 12.788 85.8301 12.896L89.3941 14.048C92.4181 15.02 94.1101 16.712 94.1101 19.628ZM89.0701 5.84C89.0701 4.544 87.9541 3.392 86.4061 3.392C84.8581 3.392 83.7061 4.544 83.7061 5.84C83.7061 7.208 84.8581 8.288 86.4061 8.288C87.8461 8.288 89.0701 7.208 89.0701 5.84ZM90.1141 19.664C90.1141 18.656 89.3941 17.756 88.0261 17.36L85.5781 16.64C83.9221 16.676 82.7701 17.792 82.7701 19.304C82.7701 20.672 84.0301 22.004 86.5141 22.004C88.9261 22.004 90.1141 20.816 90.1141 19.664ZM104.048 17.468C99.116 17.468 95.048 14.012 95.048 8.828C95.048 3.392 99.188 0.223999 103.364 0.223999C107.9 0.223999 110.564 3.32 110.564 6.668C110.564 7.28 110.528 7.748 110.42 8.18L108.404 9.944H99.188C99.62 12.212 101.492 13.976 104.696 13.976C106.748 13.976 108.26 13.436 109.412 12.716L108.98 16.46C107.792 17.072 106.244 17.468 104.048 17.468ZM103.436 3.536C101.96 3.536 100.052 4.472 99.368 6.92H106.424C106.46 6.776 106.46 6.632 106.46 6.488C106.46 5.084 105.272 3.536 103.436 3.536Z" fill="black"/>
</svg>